<mxfile host="65bd71144e">
    <diagram id="SzWDvU71ywmw7MKfxQqC" name="Page-1">
        <mxGraphModel dx="1083" dy="484" grid="1" gridSize="10" guides="1" tooltips="1" connect="1" arrows="1" fold="1" page="1" pageScale="1" pageWidth="850" pageHeight="1100" math="0" shadow="0">
            <root>
                <mxCell id="0"/>
                <mxCell id="1" parent="0"/>
                <mxCell id="n87xrL4a0USTosJ86s_9-1" value="" style="rounded=0;whiteSpace=wrap;html=1;" parent="1" vertex="1">
                    <mxGeometry x="30" y="60" width="620" height="230" as="geometry"/>
                </mxCell>
                <mxCell id="n87xrL4a0USTosJ86s_9-2" value="&lt;b&gt;Container&lt;/b&gt;: Meross Local Addon" style="text;html=1;align=center;verticalAlign=middle;resizable=0;points=[];autosize=1;" parent="1" vertex="1">
                    <mxGeometry x="30" y="40" width="190" height="20" as="geometry"/>
                </mxCell>
                <mxCell id="n87xrL4a0USTosJ86s_9-20" style="edgeStyle=orthogonalEdgeStyle;rounded=0;orthogonalLoop=1;jettySize=auto;html=1;fillColor=#f8cecc;strokeColor=#b85450;dashed=1;strokeWidth=2;" parent="1" source="n87xrL4a0USTosJ86s_9-3" target="n87xrL4a0USTosJ86s_9-19" edge="1">
                    <mxGeometry relative="1" as="geometry"/>
                </mxCell>
                <mxCell id="n87xrL4a0USTosJ86s_9-21" style="edgeStyle=orthogonalEdgeStyle;rounded=0;orthogonalLoop=1;jettySize=auto;html=1;entryX=0.5;entryY=1;entryDx=0;entryDy=0;fillColor=#f8cecc;strokeColor=#b85450;dashed=1;strokeWidth=2;" parent="1" source="n87xrL4a0USTosJ86s_9-3" target="n87xrL4a0USTosJ86s_9-10" edge="1">
                    <mxGeometry relative="1" as="geometry">
                        <Array as="points">
                            <mxPoint x="300" y="120"/>
                        </Array>
                    </mxGeometry>
                </mxCell>
                <mxCell id="n87xrL4a0USTosJ86s_9-3" value="Reverse proxy&lt;br&gt;&lt;i&gt;nginx&lt;/i&gt;" style="rounded=0;whiteSpace=wrap;html=1;fillColor=#fff2cc;strokeColor=#d6b656;" parent="1" vertex="1">
                    <mxGeometry x="200" y="220" width="200" height="70" as="geometry"/>
                </mxCell>
                <mxCell id="RzaZcnIC_kLMkkmVuZrI-8" style="edgeStyle=orthogonalEdgeStyle;rounded=0;orthogonalLoop=1;jettySize=auto;html=1;entryX=0;entryY=0.5;entryDx=0;entryDy=0;strokeWidth=1;endArrow=classic;endFill=1;fillColor=#f5f5f5;strokeColor=#666666;" parent="1" source="n87xrL4a0USTosJ86s_9-5" target="n87xrL4a0USTosJ86s_9-12" edge="1">
                    <mxGeometry relative="1" as="geometry"/>
                </mxCell>
                <mxCell id="n87xrL4a0USTosJ86s_9-5" value="Local HTTP API&lt;br&gt;&lt;i&gt;flask&lt;/i&gt;" style="rounded=0;whiteSpace=wrap;html=1;fillColor=#fff2cc;strokeColor=#d6b656;" parent="1" vertex="1">
                    <mxGeometry x="195" y="95" width="200" height="50" as="geometry"/>
                </mxCell>
                <mxCell id="n87xrL4a0USTosJ86s_9-6" value="Broker Service&lt;br&gt;&lt;i&gt;python&lt;/i&gt;" style="rounded=0;whiteSpace=wrap;html=1;fillColor=#fff2cc;strokeColor=#d6b656;" parent="1" vertex="1">
                    <mxGeometry x="500" y="90" width="110" height="60" as="geometry"/>
                </mxCell>
                <mxCell id="n87xrL4a0USTosJ86s_9-7" value="MQTT Service&lt;br&gt;&lt;i&gt;mosquitto&lt;/i&gt;" style="rounded=0;whiteSpace=wrap;html=1;fillColor=#fff2cc;strokeColor=#d6b656;" parent="1" vertex="1">
                    <mxGeometry x="460" y="220" width="150" height="70" as="geometry"/>
                </mxCell>
                <mxCell id="n87xrL4a0USTosJ86s_9-8" value="Binds 0.0.0.0/0 : 2002" style="rounded=0;whiteSpace=wrap;html=1;fillColor=#1ba1e2;strokeColor=#006EAF;fontColor=#ffffff;" parent="1" vertex="1">
                    <mxGeometry x="200" y="290" width="200" height="20" as="geometry"/>
                </mxCell>
                <mxCell id="n87xrL4a0USTosJ86s_9-9" value="Binds 0.0.0.0/0 : 2001" style="rounded=0;whiteSpace=wrap;html=1;fillColor=#1ba1e2;strokeColor=#006EAF;fontColor=#ffffff;" parent="1" vertex="1">
                    <mxGeometry x="410" y="290" width="200" height="20" as="geometry"/>
                </mxCell>
                <mxCell id="n87xrL4a0USTosJ86s_9-10" value="Binds 127.0.0.1:2002" style="rounded=0;whiteSpace=wrap;html=1;fillColor=#1ba1e2;strokeColor=#006EAF;fontColor=#ffffff;" parent="1" vertex="1">
                    <mxGeometry x="195" y="145" width="200" height="20" as="geometry"/>
                </mxCell>
                <mxCell id="n87xrL4a0USTosJ86s_9-11" value="auth&lt;br&gt;plugin" style="rounded=0;whiteSpace=wrap;html=1;fillColor=#f5f5f5;strokeColor=#666666;fontColor=#333333;" parent="1" vertex="1">
                    <mxGeometry x="410" y="220" width="50" height="70" as="geometry"/>
                </mxCell>
                <mxCell id="n87xrL4a0USTosJ86s_9-12" value="/data/database.db" style="shape=cylinder;whiteSpace=wrap;html=1;boundedLbl=1;backgroundOutline=1;fillColor=#f5f5f5;strokeColor=#666666;fontColor=#333333;labelPosition=center;verticalLabelPosition=top;align=center;verticalAlign=bottom;" parent="1" vertex="1">
                    <mxGeometry x="430" y="90" width="40" height="60" as="geometry"/>
                </mxCell>
                <mxCell id="n87xrL4a0USTosJ86s_9-19" value="Static Assets&lt;br&gt;/var/www" style="rounded=1;whiteSpace=wrap;html=1;fillColor=#f5f5f5;strokeColor=#666666;fontColor=#333333;" parent="1" vertex="1">
                    <mxGeometry x="40" y="90" width="120" height="60" as="geometry"/>
                </mxCell>
                <mxCell id="n87xrL4a0USTosJ86s_9-27" style="edgeStyle=orthogonalEdgeStyle;rounded=0;orthogonalLoop=1;jettySize=auto;html=1;fillColor=#dae8fc;strokeColor=#6c8ebf;strokeWidth=2;dashed=1;" parent="1" source="n87xrL4a0USTosJ86s_9-22" target="n87xrL4a0USTosJ86s_9-9" edge="1">
                    <mxGeometry relative="1" as="geometry"/>
                </mxCell>
                <mxCell id="n87xrL4a0USTosJ86s_9-28" value="MQTT service" style="text;html=1;align=center;verticalAlign=middle;resizable=0;points=[];labelBackgroundColor=#ffffff;" parent="n87xrL4a0USTosJ86s_9-27" vertex="1" connectable="0">
                    <mxGeometry x="-0.175" y="2" relative="1" as="geometry">
                        <mxPoint as="offset"/>
                    </mxGeometry>
                </mxCell>
                <mxCell id="n87xrL4a0USTosJ86s_9-22" value="Meross hardware devices" style="rounded=0;whiteSpace=wrap;html=1;" parent="1" vertex="1">
                    <mxGeometry x="450" y="444" width="120" height="60" as="geometry"/>
                </mxCell>
                <mxCell id="n87xrL4a0USTosJ86s_9-25" style="edgeStyle=orthogonalEdgeStyle;rounded=0;orthogonalLoop=1;jettySize=auto;html=1;entryX=0.5;entryY=1;entryDx=0;entryDy=0;fillColor=#f8cecc;strokeColor=#b85450;strokeWidth=2;dashed=1;" parent="1" source="n87xrL4a0USTosJ86s_9-24" target="n87xrL4a0USTosJ86s_9-8" edge="1">
                    <mxGeometry relative="1" as="geometry"/>
                </mxCell>
                <mxCell id="n87xrL4a0USTosJ86s_9-26" value="&lt;b&gt;IP Filtering&lt;br&gt;&lt;/b&gt;whitelist /_admin_/** &lt;br&gt;from 172.30.32.2" style="text;html=1;align=center;verticalAlign=middle;resizable=0;points=[];labelBackgroundColor=#ffffff;" parent="n87xrL4a0USTosJ86s_9-25" vertex="1" connectable="0">
                    <mxGeometry x="-0.2" y="-2" relative="1" as="geometry">
                        <mxPoint as="offset"/>
                    </mxGeometry>
                </mxCell>
                <mxCell id="n87xrL4a0USTosJ86s_9-24" value="Home Assistant" style="rounded=0;whiteSpace=wrap;html=1;" parent="1" vertex="1">
                    <mxGeometry x="240" y="444" width="120" height="60" as="geometry"/>
                </mxCell>
                <mxCell id="n87xrL4a0USTosJ86s_9-30" style="edgeStyle=orthogonalEdgeStyle;rounded=0;orthogonalLoop=1;jettySize=auto;html=1;fillColor=#fff2cc;strokeColor=#d6b656;strokeWidth=2;dashed=1;" parent="1" source="n87xrL4a0USTosJ86s_9-29" target="n87xrL4a0USTosJ86s_9-8" edge="1">
                    <mxGeometry relative="1" as="geometry">
                        <Array as="points">
                            <mxPoint x="110" y="390"/>
                            <mxPoint x="230" y="390"/>
                        </Array>
                    </mxGeometry>
                </mxCell>
                <mxCell id="n87xrL4a0USTosJ86s_9-31" value="&lt;b&gt;IP Filtering&lt;/b&gt;&lt;br&gt;whitelist /v1/** &lt;br&gt;from 0.0.0.0" style="text;html=1;align=center;verticalAlign=middle;resizable=0;points=[];labelBackgroundColor=#ffffff;" parent="n87xrL4a0USTosJ86s_9-30" vertex="1" connectable="0">
                    <mxGeometry x="-0.2154" y="-4" relative="1" as="geometry">
                        <mxPoint x="-46" y="-4" as="offset"/>
                    </mxGeometry>
                </mxCell>
                <mxCell id="n87xrL4a0USTosJ86s_9-29" value="Custom Pairer App" style="rounded=0;whiteSpace=wrap;html=1;" parent="1" vertex="1">
                    <mxGeometry x="50" y="444" width="120" height="60" as="geometry"/>
                </mxCell>
                <mxCell id="RzaZcnIC_kLMkkmVuZrI-3" style="edgeStyle=orthogonalEdgeStyle;rounded=0;orthogonalLoop=1;jettySize=auto;html=1;fillColor=#dae8fc;strokeColor=#6c8ebf;dashed=1;strokeWidth=2;" parent="1" source="n87xrL4a0USTosJ86s_9-11" target="n87xrL4a0USTosJ86s_9-10" edge="1">
                    <mxGeometry relative="1" as="geometry">
                        <mxPoint x="210" y="300" as="sourcePoint"/>
                        <mxPoint x="120" y="230" as="targetPoint"/>
                        <Array as="points">
                            <mxPoint x="435" y="190"/>
                            <mxPoint x="360" y="190"/>
                        </Array>
                    </mxGeometry>
                </mxCell>
                <mxCell id="RzaZcnIC_kLMkkmVuZrI-4" value="Auth check&lt;br&gt;via API calls" style="text;html=1;align=center;verticalAlign=middle;resizable=0;points=[];labelBackgroundColor=#ffffff;" parent="RzaZcnIC_kLMkkmVuZrI-3" vertex="1" connectable="0">
                    <mxGeometry x="-0.1789" y="-3" relative="1" as="geometry">
                        <mxPoint x="18" y="-1" as="offset"/>
                    </mxGeometry>
                </mxCell>
                <mxCell id="RzaZcnIC_kLMkkmVuZrI-6" style="edgeStyle=orthogonalEdgeStyle;rounded=0;orthogonalLoop=1;jettySize=auto;html=1;fillColor=#fff2cc;strokeColor=#d6b656;strokeWidth=2;dashed=1;" parent="1" source="n87xrL4a0USTosJ86s_9-3" target="n87xrL4a0USTosJ86s_9-10" edge="1">
                    <mxGeometry relative="1" as="geometry">
                        <Array as="points">
                            <mxPoint x="240" y="200"/>
                            <mxPoint x="240" y="200"/>
                        </Array>
                        <mxPoint x="120" y="530" as="sourcePoint"/>
                        <mxPoint x="210" y="360" as="targetPoint"/>
                    </mxGeometry>
                </mxCell>
                <mxCell id="RzaZcnIC_kLMkkmVuZrI-9" style="edgeStyle=orthogonalEdgeStyle;rounded=0;orthogonalLoop=1;jettySize=auto;html=1;strokeWidth=1;endArrow=none;endFill=0;fillColor=#f5f5f5;strokeColor=#666666;startArrow=classic;startFill=1;" parent="1" source="n87xrL4a0USTosJ86s_9-12" target="n87xrL4a0USTosJ86s_9-6" edge="1">
                    <mxGeometry relative="1" as="geometry">
                        <mxPoint x="405" y="130" as="sourcePoint"/>
                        <mxPoint x="460" y="130" as="targetPoint"/>
                    </mxGeometry>
                </mxCell>
                <mxCell id="RzaZcnIC_kLMkkmVuZrI-10" style="edgeStyle=orthogonalEdgeStyle;rounded=0;orthogonalLoop=1;jettySize=auto;html=1;fillColor=#e1d5e7;strokeColor=#9673a6;dashed=1;strokeWidth=2;" parent="1" source="n87xrL4a0USTosJ86s_9-6" target="n87xrL4a0USTosJ86s_9-7" edge="1">
                    <mxGeometry relative="1" as="geometry">
                        <mxPoint x="600" y="170" as="sourcePoint"/>
                        <mxPoint x="370" y="130" as="targetPoint"/>
                        <Array as="points">
                            <mxPoint x="555" y="240"/>
                            <mxPoint x="555" y="240"/>
                        </Array>
                    </mxGeometry>
                </mxCell>
                <mxCell id="RzaZcnIC_kLMkkmVuZrI-11" value="Subscribes to *" style="text;html=1;align=center;verticalAlign=middle;resizable=0;points=[];labelBackgroundColor=#ffffff;" parent="RzaZcnIC_kLMkkmVuZrI-10" vertex="1" connectable="0">
                    <mxGeometry x="-0.1789" y="-3" relative="1" as="geometry">
                        <mxPoint x="3" y="1" as="offset"/>
                    </mxGeometry>
                </mxCell>
                <mxCell id="RzaZcnIC_kLMkkmVuZrI-12" value="&lt;span style=&quot;background-color: rgb(255 , 255 , 255)&quot;&gt;-&amp;gt; /_nat_/#&lt;/span&gt;&lt;div&gt;-&amp;gt; /appliance/+/publish&lt;/div&gt;&lt;div&gt;-&amp;gt; $SYS/client-disconnections&lt;/div&gt;&lt;div&gt;-&amp;gt; /appliance/+/subscribe&lt;/div&gt;&lt;div&gt;-&amp;gt; /_agent&lt;/div&gt;" style="text;html=1;align=left;verticalAlign=middle;resizable=0;points=[];autosize=1;" parent="1" vertex="1">
                    <mxGeometry x="670" y="180" width="180" height="80" as="geometry"/>
                </mxCell>
                <mxCell id="RzaZcnIC_kLMkkmVuZrI-13" value="*" style="text;html=1;align=center;verticalAlign=middle;resizable=0;points=[];autosize=1;fontStyle=1" parent="1" vertex="1">
                    <mxGeometry x="660" y="176" width="20" height="20" as="geometry"/>
                </mxCell>
            </root>
        </mxGraphModel>
    </diagram>
</mxfile>